<svg width="64" height="64" xmlns="http://www.w3.org/2000/svg">

 <g>
  <title>background</title>
  <rect fill="none" id="canvas_background" height="402" width="582" y="-1" x="-1"/>
 </g>
 <g>
  <title>Layer 1</title>
  <path id="svg_1" d="m18,55a3,3 0 0 0 3,3l8,0a3,3 0 0 0 0,-6l-8,0a3,3 0 0 0 -3,3zm12,0a1,1 0 0 1 -1,1l-8,0a1,1 0 0 1 0,-2l8,0a1,1 0 0 1 1,1z"/>
  <circle fill="#a3a3f1" id="svg_2" r="1" cy="12" cx="13"/>
  <circle id="svg_3" r="1" cy="12" cx="17"/>
  <circle fill="#a3a3f1" id="svg_4" r="1" cy="12" cx="21"/>
  <path id="svg_5" d="m8,37.19a1,1 0 0 0 1,-1l0,-25.19a3,3 0 0 1 3,-3l26,0a3,3 0 0 1 2,0.75a1,1 0 1 0 1.32,-1.5a5,5 0 0 0 -3.32,-1.25l-26,0a5,5 0 0 0 -5,5l0,25.19a1,1 0 0 0 1,1z"/>
  <path id="svg_6" d="m42,52.54a1,1 0 0 0 -1,1l0,3.46a3,3 0 0 1 -3,3l-26,0a3,3 0 0 1 -2.94,-2.38a1,1 0 1 0 -1.95,0.38a5,5 0 0 0 4.89,4l26,0a5,5 0 0 0 5,-5l0,-3.46a1,1 0 0 0 -1,-1z"/>
  <circle fill="#a3a3f1" id="svg_7" r="1" cy="26" cx="43"/>
  <path fill="#000000" id="svg_8" d="m61.64,47.72l-7.76,-6.41l-1.33,-4a1,1 0 0 0 -0.24,-0.39l-7.07,-7.07a3,3 0 0 0 -4.24,0a3.09,3.09 0 0 0 -0.64,0.93a3,3 0 0 0 -4.48,2.44a2.93,2.93 0 0 0 -2,0.87a3.15,3.15 0 0 0 -0.59,0.83l-2.19,-2.21a3,3 0 1 0 -4.24,4.29l6,6l-1.86,0a3,3 0 0 0 0,6l7.84,0l0.74,0.75a1.06,1.06 0 0 0 0.39,0.24l4,1.32l8.58,10.4a1,1 0 0 0 0.77,0.36a1,1 0 0 0 0.64,-0.23a1,1 0 0 0 0.13,-1.41l-8.79,-10.68a0.94,0.94 0 0 0 -0.45,-0.31l-4,-1.34l-0.85,-0.88a1,1 0 0 0 -0.71,-0.29l-8.29,0a1,1 0 0 1 0,-2l4.25,0a1,1 0 0 0 0.92,-0.62a1,1 0 0 0 -0.17,-1.09l-7.69,-7.68a1,1 0 0 1 0,-1.42a1,1 0 0 1 1.41,0l4.25,4.24l2.82,2.82a1,1 0 0 0 0.71,0.3a1,1 0 0 0 0.71,-1.71l-2.87,-2.77a1,1 0 0 1 -0.29,-0.71a1,1 0 0 1 0.29,-0.7a1,1 0 0 1 1.41,0l2.82,2.82a1,1 0 0 0 0.71,0.3a1,1 0 0 0 0.72,-1.71l-2.83,-2.83a1,1 0 0 1 1.41,-1.41l1.42,1.36l1.41,1.42a1,1 0 0 0 1.42,0a1,1 0 0 0 0,-1.42l-1.42,-1.41a1,1 0 0 1 0,-1.42a1,1 0 0 1 1.42,0l6.9,6.91l1.34,4a1.07,1.07 0 0 0 0.31,0.45l8,6.59a1,1 0 0 0 1.41,-0.13a1,1 0 0 0 -0.15,-1.39z"/>
  <path id="svg_9" d="m28,30l0,-4a1,1 0 0 0 -1,-1l-2,0l0,-2a1,1 0 0 0 -1,-1l-4,0a1,1 0 0 0 -1,1l0,2l-2,0a1,1 0 0 0 -1,1l0,4a1,1 0 0 0 1,1l2,0l0,2a1,1 0 0 0 1,1l4,0a1,1 0 0 0 1,-1l0,-2l2,0a1,1 0 0 0 1,-1zm-2,-1l-2,0a1,1 0 0 0 -1,1l0,2l-2,0l0,-2a1,1 0 0 0 -1,-1l-2,0l0,-2l2,0a1,1 0 0 0 1,-1l0,-2l2,0l0,2a1,1 0 0 0 1,1l2,0l0,2z"/>
  <path id="svg_10" d="m31,30a1,1 0 0 0 1,-1l0,-8a3,3 0 0 0 -3,-3l-14,0a3,3 0 0 0 -3,3l0,14a3,3 0 0 0 3,3l8.32,0a1,1 0 0 0 0,-2l-8.32,0a1,1 0 0 1 -1,-1l0,-14a1,1 0 0 1 1,-1l14,0a1,1 0 0 1 1,1l0,8a1,1 0 0 0 1,1z"/>
  <path id="svg_11" d="m34,14l0,5a3,3 0 0 0 2,2.83l0,4.17a1,1 0 0 0 1,1a1,1 0 0 0 0.72,-0.3l4.56,-4.7l6.72,0a3,3 0 0 0 3,-3l0,-5a3,3 0 0 0 -3,-3l-12,0a3,3 0 0 0 -3,3zm16,0l0,5a1,1 0 0 1 -1,1l-7.14,0a1,1 0 0 0 -0.72,0.3l-3.14,3.24l0,-2.54a1,1 0 0 0 -1,-1a1,1 0 0 1 -1,-1l0,-5a1,1 0 0 1 1,-1l12,0a1,1 0 0 1 1,1z"/>
  <path fill="#a3a3f1" id="svg_12" d="m39,18l4,0a1,1 0 0 0 0,-2l-4,0a1,1 0 0 0 0,2z"/>
  <circle id="svg_13" r="1" cy="17" cx="47"/>
  <path fill="#a3a3f1" id="svg_14" d="m14,46.92a1,1 0 0 0 -0.49,-0.85l-5,-2.93a1,1 0 0 0 -1.51,0.86l0,6a1,1 0 0 0 0.51,0.87a1,1 0 0 0 0.49,0.13a1,1 0 0 0 0.52,-0.15l5,-3.07a1,1 0 0 0 0.48,-0.86zm-5,1.29l0,-2.46l2.06,1.25l-2.06,1.21z"/>
  <path id="svg_15" d="m18,47a8,8 0 1 0 -8,8a8,8 0 0 0 8,-8zm-14,0a6,6 0 1 1 6,6a6,6 0 0 1 -6,-6z"/>
 </g>
</svg>