<svg width="512.00016" height="512" xmlns="http://www.w3.org/2000/svg">

 <g>
  <title>background</title>
  <rect fill="none" id="canvas_background" height="402" width="582" y="-1" x="-1"/>
 </g>
 <g>
  <title>Layer 1</title>
  <path fill="#a3a3f1" id="svg_1" d="m413.867188,85.332031c-7.070313,0 -12.800782,5.730469 -12.800782,12.800781c0,7.070313 5.730469,12.800782 12.800782,12.800782c7.070312,0 12.800781,-5.730469 12.800781,-12.800782c0,-7.070312 -5.730469,-12.800781 -12.800781,-12.800781zm0,0"/>
  <path id="svg_2" d="m449.769531,2.5c-3.332031,-3.332031 -8.734375,-3.332031 -12.066406,0l-68.269531,68.265625c-1.597656,1.601563 -2.5,3.769531 -2.5,6.035156l0,59.730469c0,4.714844 3.820312,8.535156 8.535156,8.535156l59.734375,0c2.261719,0 4.429687,-0.898437 6.03125,-2.5l68.265625,-68.269531c3.332031,-3.332031 3.332031,-8.730469 0,-12.066406l-59.730469,-59.730469zm-18.101562,125.5l-47.667969,0l0,-47.667969l59.734375,-59.734375l47.667969,47.667969l-59.734375,59.734375zm0,0"/>
  <path fill="#a3a3f1" id="svg_3" d="m8.535156,290.132812l25.597656,0l0,1.09375c0.035157,15.351563 10.640626,28.660157 25.601563,32.117188l0,77.722656c0,4.714844 3.820313,8.535156 8.53125,8.535156l51.199219,0c4.714844,0 8.535156,-3.820312 8.535156,-8.535156l0,-34.132812l8.601562,0c14.085938,-0.039063 25.496094,-11.445313 25.53125,-25.53125l0,-18.058594c10.898438,-2.554688 19.761719,-10.460938 23.535157,-21l143.667969,63.855469c4.308593,1.914062 9.351562,-0.027344 11.261718,-4.335938c0.484375,-1.089843 0.738282,-2.269531 0.734375,-3.464843l0,-204.800782c0.003907,-4.710937 -3.816406,-8.53125 -8.53125,-8.53125c-1.191406,0 -2.375,0.25 -3.464843,0.734375l-143.667969,63.855469c-4.664063,-13.113281 -17.058594,-21.882812 -30.976563,-21.921875l-87.515625,0c-18.242187,0.015625 -33.023437,14.800781 -33.042969,33.039063l0,1.09375l-25.597656,0c-4.714844,0 -8.535156,3.820312 -8.535156,8.53125l0,51.199218c0,4.714844 3.820312,8.535156 8.535156,8.535156zm281.597656,-108.238281l34.132813,-15.160156l0,178.53125l-34.132813,-15.160156l0,-148.210938zm-102.398437,45.519531l85.332031,-37.933593l0,133.078125l-85.332031,-37.972656l0,-57.171876zm-76.800781,130.984376l0,34.136718l-34.132813,0l0,-68.269531l34.132813,0l0,34.132813zm34.132812,-16.996094c-0.003906,4.671875 -3.789062,8.460937 -8.464844,8.464844l-8.601562,0l0,-25.601563l17.066406,0l0,17.136719zm-93.867187,-59.804688l0,-60.824218c0.011719,-8.816407 7.15625,-15.964844 15.976562,-15.972657l87.515625,0c8.820313,0.007813 15.964844,7.15625 15.976563,15.972657l0,70.453124c-0.011719,8.816407 -7.15625,15.964844 -15.976563,15.972657l-87.515625,0c-8.820312,-0.007813 -15.964843,-7.15625 -15.976562,-15.972657l0,-9.628906zm-34.132813,-42.664062l17.066406,0l0,34.132812l-17.066406,0l0,-34.132812zm0,0"/>
  <path fill="#a3a3f1" id="svg_4" d="m425.03125,335.546875c-3.332031,-3.332031 -8.734375,-3.332031 -12.066406,0l-60.347656,60.347656c-3.332032,3.332031 -3.332032,8.734375 0,12.066407l84.480468,84.480468c3.332032,3.332032 8.730469,3.332032 12.066406,0l60.335938,-60.339844c3.332031,-3.332031 3.332031,-8.734374 0,-12.066406l-84.46875,-84.488281zm56.097656,80.214844l-48.15625,-3.695313l-3.703125,-48.15625l51.859375,51.851563zm-38,58.554687l-72.414062,-72.398437l41.191406,-41.1875l4.617188,59.9375c0.320312,4.195312 3.652343,7.535156 7.847656,7.859375l59.949218,4.605468l-41.191406,41.183594zm0,0"/>
  <path id="svg_5" d="m230.402344,162.132812c32.921875,0.074219 59.671875,-26.554687 59.75,-59.476562c0.027344,-12.96875 -4.171875,-25.59375 -11.964844,-35.960938l52.128906,-52.128906l-12.082031,-12.066406l-52.128906,52.113281c-26.394531,-19.792969 -63.835938,-14.445312 -83.628907,11.945313c-19.792968,26.390625 -14.445312,63.832031 11.945313,83.628906c10.378906,7.78125 23.007813,11.972656 35.980469,11.945312zm0,-102.402343c23.5625,0 42.664062,19.105469 42.664062,42.667969c0,23.566406 -19.101562,42.667968 -42.664062,42.667968c-23.566406,0 -42.667969,-19.101562 -42.667969,-42.667968c0.027344,-23.550782 19.113281,-42.636719 42.667969,-42.667969zm0,0"/>
  <path id="svg_6" d="m366.933594,298.667969l42.667968,0l0,8.53125c0,4.714843 3.820313,8.535156 8.535157,8.535156l68.265625,0c4.710937,0 8.53125,-3.820313 8.53125,-8.535156l0,-42.503907c-0.042969,-14.492187 -9.207032,-27.386718 -22.875,-32.195312c15.359375,-10.929688 18.949218,-32.242188 8.019531,-47.601562c-10.925781,-15.359376 -32.238281,-18.953126 -47.597656,-8.023438s-18.953125,32.242188 -8.023438,47.601562c2.207031,3.101563 4.917969,5.816407 8.023438,8.023438c-5.523438,1.96875 -10.449219,5.324219 -14.304688,9.742188c-2.972656,-3.425782 -6.601562,-6.226563 -10.671875,-8.234376c11.46875,-8.265624 14.066406,-24.265624 5.800782,-35.734374c-8.265626,-11.46875 -24.265626,-14.066407 -35.738282,-5.800782c-11.46875,8.265625 -14.066406,24.265625 -5.800781,35.734375c1.609375,2.234375 3.570313,4.191407 5.800781,5.800781c-11.6875,5.683594 -19.125,17.527344 -19.164062,30.523438l0,25.601562c0,4.710938 3.820312,8.535157 8.53125,8.535157zm85.335937,-110.933594c9.425781,0 17.066407,7.640625 17.066407,17.066406s-7.640626,17.066407 -17.066407,17.066407s-17.066406,-7.644532 -17.066406,-17.066407c0,-9.425781 7.640625,-17.066406 17.066406,-17.066406zm-25.601562,102.398437l0,-25.4375c0.015625,-9.511718 7.71875,-17.214843 17.230469,-17.230468l16.742187,0c9.507813,0.015625 17.214844,7.71875 17.226563,17.230468l0,33.96875l-51.199219,0l0,-8.53125zm-34.132813,-85.332031c4.710938,0 8.53125,3.820313 8.53125,8.53125c0,4.714844 -3.820312,8.535157 -8.53125,8.535157c-4.714844,0 -8.535156,-3.820313 -8.535156,-8.535157c0,-4.710937 3.820312,-8.53125 8.535156,-8.53125zm-17.066406,59.730469c0,-9.425781 7.640625,-17.066406 17.066406,-17.066406c9.425782,0 17.066406,7.644531 17.066406,17.066406l0,17.070312l-34.132812,0l0,-17.070312zm0,0"/>
  <path id="svg_7" d="m238.933594,349.867188l-34.132813,0c-2.261719,0 -4.433593,0.898437 -6.035156,2.5l-51.199219,51.199218c-3.332031,3.332032 -3.332031,8.734375 0,12.066406l93.867188,93.867188c3.332031,3.332031 8.734375,3.332031 12.066406,0l68.269531,-68.265625c3.328125,-3.332031 3.328125,-8.734375 0,-12.066406l-76.800781,-76.800781c-1.601562,-1.601563 -3.773438,-2.5 -6.035156,-2.5zm8.535156,141.535156l-81.800781,-81.800782l42.664062,-42.667968l27.070313,0l68.265625,68.265625l-56.199219,56.203125zm0,0"/>
  <path id="svg_8" d="m198.769531,420.632812l34.132813,-34.132812l12.066406,12.066406l-34.132812,34.132813l-12.066407,-12.066407zm0,0"/>
  <path id="svg_9" d="m224.363281,446.230469l34.136719,-34.132813l12.066406,12.066406l-34.132812,34.136719l-12.070313,-12.070312zm0,0"/>
 </g>
</svg>