<svg width="511.99964" height="511" xmlns="http://www.w3.org/2000/svg">

 <g>
  <title>background</title>
  <rect fill="none" id="canvas_background" height="402" width="582" y="-1" x="-1"/>
 </g>
 <g>
  <title>Layer 1</title>
  <path fill="#a3a3f1" id="svg_1" d="m257.386719,81.128906c-24.328125,0 -45.113281,10.46875 -54.238281,27.3125c-1.976563,3.640625 -0.621094,8.191406 3.019531,10.164063c3.640625,1.976562 8.191406,0.621093 10.164062,-3.019531c6.40625,-11.820313 22.519531,-19.460938 41.054688,-19.460938c18.539062,0 34.652343,7.640625 41.058593,19.460938c1.359376,2.507812 3.9375,3.929687 6.597657,3.929687c1.207031,0 2.433593,-0.292969 3.566406,-0.90625c3.640625,-1.972656 4.992187,-6.523437 3.019531,-10.167969c-9.125,-16.84375 -29.910156,-27.3125 -54.242187,-27.3125zm0,0"/>
  <path id="svg_2" d="m333.90625,90.472656c1.359375,2.503906 3.9375,3.925782 6.597656,3.925782c1.207032,0 2.433594,-0.292969 3.566406,-0.90625c3.640626,-1.972657 4.992188,-6.523438 3.019532,-10.164063c-14.949219,-27.589844 -49.320313,-44.722656 -89.703125,-44.722656c-40.378907,0 -74.75,17.136719 -89.699219,44.722656c-1.972656,3.640625 -0.621094,8.191406 3.019531,10.164063c3.640625,1.972656 8.191407,0.621093 10.164063,-3.019532c12.324218,-22.742187 41.644531,-36.871094 76.515625,-36.871094c34.875,0 64.195312,14.125 76.519531,36.871094zm0,0"/>
  <path fill="#a3a3f1" id="svg_3" d="m133.117188,73.816406c3.644531,1.976563 8.191406,0.625 10.167968,-3.015625c18.5,-34.113281 62.222656,-55.304687 114.105469,-55.304687c51.878906,0 95.601563,21.191406 114.105469,55.304687c1.355468,2.503907 3.933594,3.925781 6.597656,3.925781c1.207031,0 2.429688,-0.292968 3.566406,-0.910156c3.640625,-1.972656 4.992188,-6.523437 3.015625,-10.164062c-21.125,-38.953125 -69.898437,-63.152344 -127.285156,-63.152344s-106.160156,24.199219 -127.289063,63.152344c-1.972656,3.640625 -0.621093,8.191406 3.015626,10.164062zm0,0"/>
  <path fill="#a3a3f1" id="svg_4" d="m401.382812,229.210938c10.746094,0 19.488282,-8.753907 19.488282,-19.515626c0,-10.761718 -8.742188,-19.515624 -19.488282,-19.515624c-10.757812,0 -19.515624,8.753906 -19.515624,19.515624c0,10.761719 8.757812,19.515626 19.515624,19.515626zm0,-24.035157c2.480469,0 4.492188,2.027344 4.492188,4.519531c0,2.453126 -2.054688,4.523438 -4.492188,4.523438c-2.492187,0 -4.519531,-2.03125 -4.519531,-4.523438c0,-2.492187 2.03125,-4.519531 4.519531,-4.519531zm0,0"/>
  <path fill="#a3a3f1" id="svg_5" d="m401.382812,251.859375c-10.757812,0 -19.515624,8.757813 -19.515624,19.519531c0,10.761719 8.757812,19.515625 19.515624,19.515625c10.746094,0 19.488282,-8.753906 19.488282,-19.515625c0,-10.761718 -8.742188,-19.519531 -19.488282,-19.519531zm0,24.039063c-2.492187,0 -4.519531,-2.027344 -4.519531,-4.519532c0,-2.492187 2.027344,-4.523437 4.519531,-4.523437c2.4375,0 4.492188,2.070312 4.492188,4.523437c0.003906,2.492188 -2.011719,4.519532 -4.492188,4.519532zm0,0"/>
  <path id="svg_6" d="m390.03125,240.535156c0,-10.757812 -8.753906,-19.515625 -19.515625,-19.515625s-19.515625,8.753907 -19.515625,19.515625c0,10.761719 8.753906,19.519532 19.515625,19.519532s19.515625,-8.757813 19.515625,-19.519532zm-19.515625,4.523438c-2.492187,0 -4.519531,-2.027344 -4.519531,-4.523438c0,-2.492187 2.027344,-4.519531 4.519531,-4.519531s4.523437,2.027344 4.523437,4.519531c0,2.496094 -2.03125,4.523438 -4.523437,4.523438zm0,0"/>
  <path id="svg_7" d="m432.226562,221.019531c-10.761718,0 -19.519531,8.753907 -19.519531,19.515625c0,10.761719 8.757813,19.519532 19.519531,19.519532c10.761719,0 19.515626,-8.757813 19.515626,-19.519532c0,-10.757812 -8.753907,-19.515625 -19.515626,-19.515625zm0,24.039063c-2.492187,0 -4.523437,-2.027344 -4.523437,-4.523438c0,-2.492187 2.03125,-4.519531 4.523437,-4.519531c2.492188,0 4.519532,2.027344 4.519532,4.519531c0,2.496094 -2.027344,4.523438 -4.519532,4.523438zm0,0"/>
  <path fill="#a3a3f1" id="svg_8" d="m186.070312,269.238281c-19.589843,0 -35.53125,15.9375 -35.53125,35.53125s15.941407,35.53125 35.53125,35.53125c19.59375,0 35.53125,-15.941406 35.53125,-35.53125c0,-19.59375 -15.9375,-35.53125 -35.53125,-35.53125zm0,56.070313c-11.324218,0 -20.535156,-9.214844 -20.535156,-20.539063s9.210938,-20.535156 20.535156,-20.535156c11.324219,0 20.539063,9.210937 20.539063,20.535156s-9.214844,20.539063 -20.539063,20.539063zm0,0"/>
  <path id="svg_9" d="m508.5625,355.617188l-36.113281,-149.078126c-5.195313,-21.441406 -15.511719,-37.785156 -30.664063,-48.578124c-3.125,-2.226563 -6.441406,-4.191407 -9.914062,-5.886719l0,-3.070313c0,-15.605468 -12.683594,-28.300781 -28.273438,-28.300781l-16.808594,0c-15.609374,0 -28.304687,12.695313 -28.304687,28.300781l0,4.332032c-6.050781,3.296874 -10.828125,7.316406 -13.695313,11.757812l-72.320312,0c-4.140625,0 -7.5,3.355469 -7.5,7.496094s3.359375,7.5 7.5,7.5l69.574219,0l0,15.320312c0,8.464844 -6.875,15.351563 -15.320313,15.351563l-141.445312,0c-8.460938,0 -15.347656,-6.886719 -15.347656,-15.351563l0,-15.320312l67.902343,0c4.140625,0 7.496094,-3.359375 7.496094,-7.5s-3.355469,-7.496094 -7.496094,-7.496094l-70.648437,0c-2.859375,-4.433594 -7.625,-8.449219 -13.667969,-11.746094l0,-4.34375c0,-15.605468 -12.695313,-28.304687 -28.304687,-28.304687l-16.777344,0c-15.609375,0 -28.304688,12.699219 -28.304688,28.304687l0,3.066406c-3.464844,1.695313 -6.769531,3.65625 -9.890625,5.875c-15.164062,10.789063 -25.488281,27.140626 -30.6875,48.59375l-36.113281,149.074219c-5.316406,21.933594 -4.460938,40.488281 2.539062,55.152344c6.261719,13.109375 17.121094,22.363281 31.40625,26.753906c30.613282,9.414063 66.457032,-6.296875 76.707032,-33.621093l17.347656,-46.207032c2.230469,-5.945312 4,-6.699218 4.019531,-6.707031c0.203125,-0.046875 1.5625,0.128906 4.140625,2.011719c24.292969,22.058594 64.078125,21.105468 90.277344,-1.753906l52.246094,0c12.121094,10.582031 27.523437,16.847656 43.703125,17.71875c17.664062,0.949218 34.179687,-4.71875 46.574219,-15.964844c2.90625,-2.125 4.121093,-2.023438 4.132812,-2.011719c0.015625,0.007813 1.78125,0.757813 4.027344,6.703125l17.320312,46.210938c8.234375,21.921874 32.933594,36.367187 58.183594,36.363281c6.234375,0 12.503906,-0.878907 18.566406,-2.746094c14.28125,-4.394531 25.136719,-13.648437 31.394532,-26.761719c7,-14.660156 7.855468,-33.210937 2.539062,-55.136718zm-121.777344,-219.921876l16.808594,0c6.511719,0 11.933594,4.722657 13.058594,10.929688c-6.222656,-1.511719 -12.757813,-2.308594 -19.511719,-2.332031c-0.105469,0 -0.207031,0 -0.308594,0c-8.121093,0 -16.046875,1.117187 -23.246093,3.085937c0.808593,-6.570312 6.414062,-11.683594 13.199218,-11.683594zm-278.351562,0l16.777344,0c6.789062,0 12.394531,5.113282 13.199218,11.6875c-7.195312,-1.96875 -15.125,-3.089843 -23.246094,-3.089843c-0.085937,0 -0.171874,0 -0.257812,0c-6.769531,0.019531 -13.320312,0.816406 -19.558594,2.332031c1.128906,-6.207031 6.558594,-10.929688 13.085938,-10.929688zm361.785156,287.488282c-20.761719,6.390625 -50.109375,-2.753906 -58.296875,-24.554688l-17.328125,-46.222656c-3.367188,-8.914062 -7.910156,-14.085938 -13.886719,-15.820312c-5.476562,-1.59375 -11.394531,-0.03125 -17.589843,4.628906c-0.195313,0.148437 -0.386719,0.308594 -0.566407,0.472656c-19.292969,17.742188 -51.753906,16.230469 -72.355469,-3.371094c-1.394531,-1.328125 -3.246093,-2.066406 -5.167968,-2.066406l-58.054688,0c-1.921875,0 -3.773437,0.738281 -5.167968,2.066406c-20.617188,19.613282 -53.074219,21.128906 -72.351563,3.375c-0.183594,-0.167968 -0.375,-0.328125 -0.574219,-0.476562c-6.203125,-4.667969 -12.128906,-6.222656 -17.617187,-4.625c-5.984375,1.742187 -10.519531,6.921875 -13.863281,15.832031l-17.347657,46.207031c-8.175781,21.800782 -37.503906,30.945313 -58.261719,24.5625c-23.246093,-7.152344 -31.914062,-30.492187 -23.78125,-64.042968l36.113282,-149.074219c6.523437,-26.917969 21.007812,-39.867188 35.425781,-45.890625c0.605469,-0.160156 1.183594,-0.390625 1.71875,-0.691406c8.601563,-3.273438 17.066406,-4.183594 23.683594,-4.203126c11.195312,-0.015624 20.851562,2.386719 27.902343,5.464844c0.121094,0.054688 0.242188,0.113282 0.371094,0.164063c6.410156,2.855469 10.585938,6.257812 11.707032,8.855469l0,21.636718c0,16.730469 13.613281,30.34375 30.34375,30.34375l141.445312,0c16.714844,0 30.316406,-13.613281 30.316406,-30.34375l0,-21.632812c1.109375,-2.566406 5.195313,-5.921875 11.460938,-8.757813c0.367187,-0.132812 0.722656,-0.28125 1.058594,-0.464843c6.964843,-2.972657 16.367187,-5.265626 27.257812,-5.265626l0.269531,0c6.609375,0.023438 15.066407,0.9375 23.65625,4.210938c0.527344,0.292969 1.097657,0.519531 1.695313,0.679688c14.421875,6.019531 28.914062,18.96875 35.4375,45.890624l36.113281,149.078126c8.136719,33.542968 -0.527344,56.882812 -23.765625,64.035156zm0,0"/>
  <path id="svg_10" d="m331.796875,269.238281c-19.59375,0 -35.53125,15.9375 -35.53125,35.53125s15.9375,35.53125 35.53125,35.53125c19.589844,0 35.53125,-15.941406 35.53125,-35.53125c0,-19.59375 -15.941406,-35.53125 -35.53125,-35.53125zm0,56.070313c-11.324219,0 -20.535156,-9.214844 -20.535156,-20.539063s9.210937,-20.535156 20.535156,-20.535156s20.535156,9.210937 20.535156,20.535156s-9.210937,20.539063 -20.535156,20.539063zm0,0"/>
  <path id="svg_11" d="m134.253906,220.992188l-2.28125,0l0,-2.28125c0,-12.683594 -10.320312,-23.003907 -23.003906,-23.003907s-23.003906,10.320313 -23.003906,23.003907l0,2.28125l-2.28125,0c-12.683594,0 -23,10.320312 -23,23.003906s10.316406,23.003906 23,23.003906l2.28125,0l0,2.28125c0,12.683594 10.320312,23.003906 23.003906,23.003906s23.003906,-10.320312 23.003906,-23.003906l0,-2.28125l2.28125,0c12.683594,0 23.003906,-10.320312 23.003906,-23.003906s-10.320312,-23.003906 -23.003906,-23.003906zm0,31.011718l-9.777344,0c-4.140624,0 -7.5,3.355469 -7.5,7.496094l0,9.78125c0,4.414062 -3.589843,8.007812 -8.007812,8.007812c-4.414062,0 -8.003906,-3.59375 -8.003906,-8.007812l0,-9.78125c0,-4.140625 -3.359375,-7.496094 -7.5,-7.496094l-9.777344,0c-4.414062,0 -8.007812,-3.59375 -8.007812,-8.007812c0,-4.414063 3.59375,-8.007813 8.007812,-8.007813l9.777344,0c4.140625,0 7.5,-3.359375 7.5,-7.5l0,-9.777343c0,-4.417969 3.589844,-8.007813 8.003906,-8.007813c4.417969,0 8.007812,3.589844 8.007812,8.007813l0,9.777343c0,4.140625 3.359376,7.5 7.5,7.5l9.777344,0c4.414063,0 8.007813,3.59375 8.007813,8.007813c0,4.414062 -3.589844,8.007812 -8.007813,8.007812zm0,0"/>
  <path id="svg_12" d="m236.328125,248.742188l-10.886719,0c-4.140625,0 -7.496094,3.359374 -7.496094,7.5c0,4.140624 3.355469,7.496093 7.496094,7.496093l10.886719,0c4.140625,0 7.496094,-3.355469 7.496094,-7.496093c0,-4.140626 -3.355469,-7.5 -7.496094,-7.5zm0,0"/>
  <path id="svg_13" d="m286.558594,248.742188l-10.914063,0c-4.140625,0 -7.5,3.359374 -7.5,7.5c0,4.140624 3.359375,7.496093 7.5,7.496093l10.914063,0c4.140625,0 7.496094,-3.355469 7.496094,-7.496093c0,-4.140626 -3.355469,-7.5 -7.496094,-7.5zm0,0"/>
  <path id="svg_14" d="m264.332031,288.03125l-10.882812,0c-4.140625,0 -7.5,3.355469 -7.5,7.496094s3.359375,7.5 7.5,7.5l10.882812,0c4.144531,0 7.5,-3.359375 7.5,-7.5s-3.355469,-7.496094 -7.5,-7.496094zm0,0"/>
 </g>
</svg>