<svg width="511.998" height="511" xmlns="http://www.w3.org/2000/svg">

 <g>
  <title>background</title>
  <rect fill="none" id="canvas_background" height="402" width="582" y="-1" x="-1"/>
 </g>
 <g>
  <title>Layer 1</title>
  <path id="svg_1" d="m58.96094,187.04688c1.46094,1.46093 3.3789,2.19531 5.29687,2.19531c1.91797,0 3.83594,-0.73047 5.30078,-2.19531c2.92579,-2.92579 2.92579,-7.67188 0,-10.59766l-18.19531,-18.19531l18.19531,-18.19141c2.92579,-2.92969 2.92579,-7.67187 0,-10.59766c-2.92578,-2.92578 -7.67187,-2.92578 -10.59765,0l-23.49219,23.49219c-1.40625,1.40625 -2.19531,3.3125 -2.19531,5.29688c0,1.98828 0.78906,3.89453 2.19531,5.30078l23.49219,23.49219zm0,0"/>
  <path id="svg_2" d="m133.32031,158.25391l-18.19531,18.19531c-2.92578,2.92578 -2.92578,7.67187 0.00391,10.59766c1.46093,1.46093 3.3789,2.19531 5.29687,2.19531s3.83594,-0.73438 5.29688,-2.19531l23.49609,-23.4961c2.92578,-2.92578 2.92578,-7.67187 0,-10.59375l-23.49609,-23.49609c-2.92578,-2.92578 -7.66797,-2.92578 -10.59375,0c-2.92969,2.92969 -2.92969,7.67187 0,10.59765l18.1914,18.19532zm0,0"/>
  <path id="svg_3" d="m81.17188,188.72266c0.89843,0.35156 1.82812,0.51953 2.73828,0.51953c2.99218,0 5.8164,-1.80469 6.97656,-4.75391l18.45703,-46.98828c1.51563,-3.85156 -0.38281,-8.19922 -4.23437,-9.71484c-3.84766,-1.51172 -8.19922,0.38281 -9.71094,4.23437l-18.46094,46.98828c-1.51172,3.85157 0.38281,8.20313 4.23438,9.71485zm0,0"/>
  <path id="svg_4" d="m45.00781,233.20313l50.48047,0c4.13672,0 7.49219,-3.35547 7.49219,-7.4961c0,-4.13672 -3.35547,-7.49219 -7.49219,-7.49219l-50.48047,0c-4.14062,0 -7.49218,3.35547 -7.49218,7.49219c0,4.14063 3.35156,7.4961 7.49218,7.4961zm0,0"/>
  <path id="svg_5" d="m211.75391,218.21484l-88.75,0c-4.13672,0 -7.49219,3.35547 -7.49219,7.49219c0,4.14063 3.35547,7.4961 7.49219,7.4961l88.75,0c4.14062,0 7.49609,-3.35547 7.49609,-7.4961c0,-4.13672 -3.35547,-7.49219 -7.49609,-7.49219zm0,0"/>
  <path id="svg_6" d="m45.00781,264.80859l21.50391,0c4.13672,0 7.49219,-3.35546 7.49219,-7.49609c0,-4.13672 -3.35547,-7.49219 -7.49219,-7.49219l-21.50391,0c-4.14062,0 -7.49218,3.35547 -7.49218,7.49219c0,4.14063 3.35156,7.49609 7.49218,7.49609zm0,0"/>
  <path id="svg_7" d="m184.33984,249.82031c-4.14062,0 -7.49218,3.35547 -7.49218,7.49219c0,4.14063 3.35156,7.49609 7.49218,7.49609l13.09375,0c4.14063,0 7.4961,-3.35546 7.4961,-7.49609c0,-4.13672 -3.35547,-7.49219 -7.4961,-7.49219l-13.09375,0zm0,0"/>
  <path id="svg_8" d="m164.61719,257.3125c0,-4.13672 -3.35547,-7.49219 -7.49219,-7.49219l-64.32031,0c-4.14063,0 -7.49219,3.35547 -7.49219,7.49219c0,4.14063 3.35156,7.49609 7.49219,7.49609l64.32031,0c4.13672,0 7.49219,-3.35546 7.49219,-7.49609zm0,0"/>
  <path id="svg_9" d="m213.70313,257.3125c0,4.14063 3.35546,7.49609 7.49218,7.49609l24.52735,0c4.14062,0 7.49609,-3.35546 7.49609,-7.49609c0,-4.13672 -3.35547,-7.49219 -7.49609,-7.49219l-24.52735,0c-4.13672,0 -7.49218,3.35547 -7.49218,7.49219zm0,0"/>
  <path id="svg_10" d="m172.89453,164.26563l25.8711,0c4.14062,0 7.49609,-3.35547 7.49609,-7.4961c0,-4.13672 -3.35547,-7.49219 -7.49609,-7.49219l-25.8711,0c-4.14062,0 -7.49609,3.35547 -7.49609,7.49219c0,4.14063 3.35547,7.4961 7.49609,7.4961zm0,0"/>
  <path id="svg_11" d="m227.74219,164.26563l157.85547,0c4.14062,0 7.49218,-3.35547 7.49218,-7.4961c0,-4.13672 -3.35156,-7.49219 -7.49218,-7.49219l-157.85547,0c-4.14063,0 -7.4961,3.35547 -7.4961,7.49219c0,4.14063 3.35547,7.4961 7.4961,7.4961zm0,0"/>
  <path id="svg_12" d="m361.62109,182.24609l-63.94531,0c-4.13672,0 -7.49219,3.35547 -7.49219,7.4961c0,4.13672 3.35547,7.49219 7.49219,7.49219l63.94531,0c4.13672,0 7.49219,-3.35547 7.49219,-7.49219c0,-4.14063 -3.35547,-7.4961 -7.49219,-7.4961zm0,0"/>
  <path id="svg_13" d="m273.69922,182.24609l-21.98047,0c-4.14062,0 -7.49219,3.35547 -7.49219,7.4961c0,4.13672 3.35157,7.49219 7.49219,7.49219l21.98047,0c4.14062,0 7.49219,-3.35547 7.49219,-7.49219c0,-4.14063 -3.35157,-7.4961 -7.49219,-7.4961zm0,0"/>
  <path id="svg_14" d="m172.89453,197.23438l53.84766,0c4.13672,0 7.49219,-3.35547 7.49219,-7.49219c0,-4.14063 -3.35547,-7.4961 -7.49219,-7.4961l-53.84766,0c-4.14062,0 -7.49609,3.35547 -7.49609,7.4961c0,4.13672 3.35547,7.49219 7.49609,7.49219zm0,0"/>
  <path id="svg_15" d="m157.21875,281.16016l-50.47656,0c-4.14063,0 -7.4961,3.35547 -7.4961,7.49218c0,4.13672 3.35547,7.49219 7.4961,7.49219l50.47656,0c4.13672,0 7.49219,-3.35547 7.49219,-7.49219c0,-4.13672 -3.35547,-7.49218 -7.49219,-7.49218zm0,0"/>
  <path fill="#a3a3f1" id="svg_16" d="m83.78906,281.16016l-38.78125,0c-4.14062,0 -7.49218,3.35547 -7.49218,7.49218c0,4.13672 3.35156,7.49219 7.49218,7.49219l38.78125,0c4.14063,0 7.49219,-3.35547 7.49219,-7.49219c0,-4.13672 -3.35156,-7.49218 -7.49219,-7.49218zm0,0"/>
  <path id="svg_17" d="m248.72266,281.16016l-65.94141,0c-4.14062,0 -7.49219,3.35547 -7.49219,7.49218c0,4.13672 3.35157,7.49219 7.49219,7.49219l65.94141,0c4.13672,0 7.49218,-3.35547 7.49218,-7.49219c0,-4.13672 -3.35546,-7.49218 -7.49218,-7.49218zm0,0"/>
  <path fill="#a3a3f1" id="svg_18" d="m337.89844,242.66797l-36.0586,0c-4.13672,0 -7.49218,3.35547 -7.49218,7.49219c0,4.14062 3.35547,7.49609 7.49218,7.49609l36.0586,0c4.14062,0 7.49218,-3.35547 7.49218,-7.49609c0,-4.13672 -3.35156,-7.49219 -7.49218,-7.49219zm0,0"/>
  <path id="svg_19" d="m400.46875,257.65625l50.90234,0c4.14063,0 7.4961,-3.35547 7.4961,-7.49609c0,-4.13672 -3.35547,-7.49219 -7.4961,-7.49219l-50.90234,0c-4.14062,0 -7.49219,3.35547 -7.49219,7.49219c0,4.14062 3.35547,7.49609 7.49219,7.49609zm0,0"/>
  <path id="svg_20" d="m375.01563,242.66797l-11.66407,0c-4.14062,0 -7.49609,3.35547 -7.49609,7.49219c0,4.14062 3.35547,7.49609 7.49609,7.49609l11.66407,0c4.14062,0 7.49218,-3.35547 7.49218,-7.49609c0,-4.13672 -3.35156,-7.49219 -7.49218,-7.49219zm0,0"/>
  <path id="svg_21" d="m301.83984,339.3125l36.0586,0c4.14062,0 7.49219,-3.35156 7.49219,-7.49219c0,-4.13672 -3.35157,-7.49218 -7.49219,-7.49218l-36.0586,0c-4.13671,0 -7.49218,3.35546 -7.49218,7.49218c0,4.14063 3.35547,7.49219 7.49218,7.49219zm0,0"/>
  <path fill="#a3a3f1" id="svg_22" d="m400.46875,339.3125l50.90234,0c4.14063,0 7.4961,-3.35156 7.4961,-7.49219c0,-4.13672 -3.35547,-7.49218 -7.4961,-7.49218l-50.90234,0c-4.14062,0 -7.49219,3.35546 -7.49219,7.49218c0,4.14063 3.35547,7.49219 7.49219,7.49219zm0,0"/>
  <path id="svg_23" d="m363.35156,339.3125l11.66407,0c4.14062,0 7.49609,-3.35156 7.49609,-7.49219c0,-4.13672 -3.35547,-7.49218 -7.49609,-7.49218l-11.66407,0c-4.14062,0 -7.49218,3.35546 -7.49218,7.49218c0,4.14063 3.35156,7.49219 7.49218,7.49219zm0,0"/>
  <path fill="#a3a3f1" id="svg_24" d="m337.89844,405.98828l-36.0586,0c-4.13672,0 -7.49218,3.35547 -7.49218,7.49219s3.35547,7.49219 7.49218,7.49219l36.0586,0c4.14062,0 7.49218,-3.35547 7.49218,-7.49219s-3.35156,-7.49219 -7.49218,-7.49219zm0,0"/>
  <path id="svg_25" d="m451.37109,405.98828l-50.90234,0c-4.14062,0 -7.49219,3.35547 -7.49219,7.49219s3.35157,7.49219 7.49219,7.49219l50.90234,0c4.14063,0 7.4961,-3.35547 7.4961,-7.49219s-3.35547,-7.49219 -7.4961,-7.49219zm0,0"/>
  <path id="svg_26" d="m375.01563,405.98828l-11.66407,0c-4.14062,0 -7.49609,3.35547 -7.49609,7.49219s3.35547,7.49219 7.49609,7.49219l11.66407,0c4.14062,0 7.49218,-3.35547 7.49218,-7.49219s-3.35156,-7.49219 -7.49218,-7.49219zm0,0"/>
  <path id="svg_27" d="m479.02344,0.5l-446.04297,0c-18.1836,0 -32.98047,14.79297 -32.98047,32.98047l0,362.56641c0,18.18359 14.79687,32.97656 32.98047,32.97656l28.19922,0c4.13672,0 7.49218,-3.35156 7.49218,-7.49219c0,-4.13672 -3.35546,-7.49219 -7.49218,-7.49219l-28.19922,0c-9.92188,0 -17.99219,-8.07031 -17.99219,-17.99218l0,-28.42579l272.9961,0l0,12.91407l-5.94141,0c-8.12891,0 -14.73828,6.60937 -14.73828,14.73828l0,18.76562l-160.56641,0c-4.13672,0 -7.49219,3.35547 -7.49219,7.49219c0,4.14063 3.35547,7.49219 7.49219,7.49219l72.04688,0l0,26.875l-22.625,0c-15.09375,0 -27.3711,12.28125 -27.3711,27.37109l0,16.1875c0,6.88672 5.60157,12.48828 12.48828,12.48828l228.875,0c6.88672,0 12.48829,-5.60156 12.48829,-12.48828l0,-16.1875c0,-15.08984 -12.27735,-27.37109 -27.3711,-27.37109l-22.625,0l0,-9.47266l138.52735,0c8.125,0 14.73437,-6.60937 14.73437,-14.73828l0,-3.52734c14.60547,-3.39063 25.52344,-16.4961 25.52344,-32.11329l0.5664,-362.57031c0.00391,-18.18359 -14.78906,-32.97656 -32.97265,-32.97656zm-196.73047,349.28125l0,-35.91797l188.62891,0l0,35.91797l-188.62891,0zm20.67578,-50.90625l0,-15.76562l147.27344,0l0,15.76562l-147.27344,0zm147.27344,65.89063l0,15.76953l-147.27344,0l0,-15.76953l147.27344,0zm-256.47266,64.25781l73.53516,0l0,2.66797c0,8.125 6.60937,14.73437 14.73828,14.73437l35.61719,0l0,9.47266l-123.89063,0l0,-26.875zm161.50391,41.86328c6.82812,0 12.38281,5.55469 12.38281,12.38281l0,13.69141l-223.88281,0l0,-13.69141c0,-6.82812 5.55859,-12.38281 12.38672,-12.38281l199.11328,0zm115.64843,-39.44922l-188.6289,0l0,-35.91406l188.62891,0l-0.00001,35.91406zm25.52344,-35.39062c0,7.25781 -4.32812,13.51171 -10.53515,16.35156l0,-17.12891c0,-8.125 -6.61329,-14.73437 -14.73829,-14.73437l-5.9414,0l0,-12.91407l31.21484,0l0,28.42579zm0,-43.41016l-10.78125,0c0.15235,-0.84766 0.2461,-39.02344 0.2461,-39.02344c0,-8.1289 -6.61328,-14.73828 -14.73828,-14.73828l-5.94141,0l0,-15.76562l5.94141,0c8.125,0 14.73828,-6.61329 14.73828,-14.73829l0,-36.41797c0,-8.125 -6.61328,-14.73828 -14.73828,-14.73828l-42.32422,0c-4.14063,0 -7.49219,3.35547 -7.49219,7.4961c0,4.13672 3.35156,7.49218 7.49219,7.49218l42.07422,0l0,35.91797l-188.62891,0l0,-35.91797l99.92969,0c4.14062,0 7.49218,-3.35546 7.49218,-7.49218c0,-4.14063 -3.35156,-7.4961 -7.49218,-7.4961l-100.17969,0c-8.12891,0 -14.73828,6.61328 -14.73828,14.73828l0,36.41797c0,8.125 6.60937,14.73829 14.73828,14.73829l5.9414,0l0,15.76562l-5.9414,0c-8.12891,0 -14.73828,6.61328 -14.73828,14.73828c0,0 0.09375,38.17578 0.24609,39.02344l-252.5625,0l0,-250.20703l481.45703,0l0,250.20703zm0,-265.19531l-480.90625,0l0,-53.96485c0,-9.91797 8.07031,-17.98828 17.99219,-17.98828l444.92187,0c9.92188,0 17.99219,8.07031 17.99219,17.99219l0,53.96094zm0,0"/>
  <path fill="#a3a3f1" id="svg_28" d="m55.26172,29.26172c-12.125,0 -21.98828,9.86328 -21.98828,21.98828s9.86328,21.99219 21.98828,21.99219s21.99219,-9.86719 21.99219,-21.99219s-9.86719,-21.98828 -21.99219,-21.98828zm0,28.99219c-3.85938,0 -7.00391,-3.14063 -7.00391,-7.00391c0,-3.85937 3.14453,-7.00391 7.00391,-7.00391c3.86328,0 7.00391,3.14454 7.00391,7.00391c0,3.86328 -3.14063,7.00391 -7.00391,7.00391zm0,0"/>
  <path id="svg_29" d="m111.25,29.26172c-12.125,0 -21.99219,9.86328 -21.99219,21.98828s9.86719,21.99219 21.99219,21.99219s21.98828,-9.86719 21.98828,-21.99219s-9.86719,-21.98828 -21.98828,-21.98828zm0,28.99219c-3.86328,0 -7.00391,-3.14063 -7.00391,-7.00391c0,-3.85937 3.14063,-7.00391 7.00391,-7.00391c3.85938,0 7.00391,3.14454 7.00391,7.00391c0,3.86328 -3.14453,7.00391 -7.00391,7.00391zm0,0"/>
  <path fill="#a3a3f1" id="svg_30" d="m167.23438,29.26172c-12.125,0 -21.98829,9.86328 -21.98829,21.98828s9.86329,21.99219 21.98829,21.99219s21.99218,-9.86719 21.99218,-21.99219s-9.86718,-21.98828 -21.99218,-21.98828zm0,28.99219c-3.85938,0 -7.00391,-3.14063 -7.00391,-7.00391c0,-3.85937 3.14453,-7.00391 7.00391,-7.00391c3.86328,0 7.0039,3.14454 7.0039,7.00391c0,3.86328 -3.14062,7.00391 -7.0039,7.00391zm0,0"/>
 </g>
</svg>